<?xml version="1.0" encoding="UTF-8"?>
<svg xmlns="http://www.w3.org/2000/svg" viewBox="0 0 256 256" width="40" height="40">
  <g transform="scale(6.4,6.4)">
    <path d="M36.62,28.775c-0.879,1.901-1.299,2.751-2.427,4.428c-1.576,2.346-3.803,5.273-6.555,5.294c-2.446,0.019-3.131-1.022-6.451-0.997c-3.32,0.017-3.96,1.026-6.41,0.999c-2.75-0.023-4.857-2.661-6.434-5c-4.329-6.444-4.794-14.39-2.151-18.361c1.928-2.904,4.981-4.61,7.846-4.61c2.919,0,4.754,1.91,7.166,1.91c2.344,0,3.769-1.913,7.145-1.913c2.553,0,5.253,1.36,7.181,3.704c-6.068,3.25-4.935,12.317,1.09,14.546z" fill="#ffffff"/>
    <path d="M26.339,7.491c1.315-1.634,2.456-3.641,2.093-5.991c-2.144,0.143-4.796,1.169-6.261,2.886c-1.328,1.565-1.98,3.865-1.551,6.114c2.34,0.071,4.313-1.255,5.719-3.009z" fill="#ffffff"/>
  </g>
</svg>